<?xml version="1.0" encoding="utf-8"?>
<!-- Generator: Adobe Illustrator 19.2.0, SVG Export Plug-In . SVG Version: 6.00 Build 0)  -->
<svg version="1.1" id="Ebene_1" xmlns="http://www.w3.org/2000/svg" xmlns:xlink="http://www.w3.org/1999/xlink" x="0px" y="0px"
	 viewBox="0 0 1024 1024" style="enable-background:new 0 0 1024 1024;" xml:space="preserve">
<style type="text/css">
	.st0{fill:#565656;}
</style>
<g>
	<g>
		<path class="st0" d="M142,50v673.8c0,0,5.5,52.4,171,166.7c70.8,48.8,199.1,83.5,199.1,83.5s127.5-35.8,199.1-83.5
			C882,776.2,882,723.8,882,723.8V50H142z M730.9,648.5l-115.3,86.4L515,598L414.1,734.9l-115.2-86.4l109.2-129.6l-160.8-51.6
			L294,333l153.6,63.5L443,228.6h143.9L582,396.5L735.8,333l46.8,134.4l-161,51.6L730.9,648.5z"/>
	</g>
</g>
</svg>
